<svg xmlns="http://www.w3.org/2000/svg" viewBox="0 0 240 64" role="img" aria-label="Velotax">
  <defs>
    <radialGradient id="lionFace" cx="45%" cy="38%" r="65%">
      <stop offset="0%" stop-color="#1E4AFF"/>
      <stop offset="100%" stop-color="#1634FF"/>
    </radialGradient>
  </defs>
  <g transform="translate(2, 0)">
    <ellipse cx="32" cy="34" rx="30" ry="28" fill="#F5C400" opacity="0.22"/>
    <path d="M6 30 C2 20 4 10 14 6 C10 14 8 22 6 30 Z" fill="#F5B800"/>
    <path d="M12 12 C8 4 18 0 24 8 C16 8 14 14 12 12 Z" fill="#FFD54F"/>
    <path d="M24 6 C24 0 34 0 38 8 C30 6 26 10 24 6 Z" fill="#F5B800"/>
    <path d="M40 12 C44 4 54 6 50 14 C46 10 42 14 40 12 Z" fill="#FFD54F"/>
    <path d="M54 30 C60 18 58 8 48 6 C54 14 56 24 54 30 Z" fill="#F5B800"/>
    <path d="M10 42 C4 38 2 30 6 22 C6 30 8 38 10 42 Z" fill="#E5A800" opacity="0.75"/>
    <path d="M54 42 C60 36 62 28 58 20 C58 28 56 38 54 42 Z" fill="#E5A800" opacity="0.75"/>
    <circle cx="32" cy="34" r="22" fill="url(#lionFace)"/>
    <circle cx="16" cy="24" r="7" fill="#1634FF"/>
    <circle cx="48" cy="24" r="7" fill="#1634FF"/>
    <circle cx="16" cy="24" r="4" fill="#F5B800"/>
    <circle cx="48" cy="24" r="4" fill="#F5B800"/>
    <ellipse cx="32" cy="40" rx="14" ry="11" fill="#FFFFFF"/>
    <ellipse cx="32" cy="38" rx="11" ry="8" fill="#F8FAFC"/>
    <ellipse cx="24" cy="32" rx="4" ry="4.5" fill="#000033"/>
    <ellipse cx="40" cy="32" rx="4" ry="4.5" fill="#000033"/>
    <circle cx="25.5" cy="30.5" r="1.3" fill="#FFFFFF"/>
    <circle cx="41.5" cy="30.5" r="1.3" fill="#FFFFFF"/>
    <ellipse cx="32" cy="38" rx="3" ry="2.5" fill="#000033"/>
    <path d="M26 42 Q32 46 38 42" stroke="#000033" stroke-width="2" fill="none" stroke-linecap="round"/>
    <circle cx="20" cy="38" r="3.5" fill="#FFFFFF" opacity="0.45"/>
    <circle cx="44" cy="38" r="3.5" fill="#FFFFFF" opacity="0.45"/>
  </g>
  <text x="76" y="40" font-family="Sora, Inter, Segoe UI, system-ui, sans-serif" font-size="28" font-weight="700" fill="#FFFFFF" letter-spacing="-0.02em">velotax</text>
</svg>
